<svg xmlns="http://www.w3.org/2000/svg" viewBox="0 0 32 32"><path d="M20.375 26.661V14.215h6.214v12.446zm-5.304-13.125l1.768-3.571 1.75 3.571v13.125h-3.518zm-4.41 13.143q-1.196 0-2.036-.357-.911-.393-1.714-1.196t-1.196-1.714q-.375-.964-.375-2.071t.375-2.018q.429-.964 1.196-1.732t1.714-1.161q.893-.393 2.036-.393.357 0 .679.036l.696.107q.036 0 .116.036t.232.107.277.125q.536.232.625.268v9.286q-.054.036-.259.125t-.348.161q-.214.089-.643.214-.214.054-.696.161-.143.018-.679.018zm7.053-19.554V5.339h6.232v1.786zm8.357 5.321h-6.036l-1.75-3.571h6zm-.357-4.66V4.965q0-.321-.125-.554-.179-.321-.304-.446-.125-.161-.446-.304-.161-.089-.518-.089h-6.946q-.375 0-.554.089-.357.179-.482.304-.089.089-.268.446-.125.232-.125.554v2.821l-2.661 5.304v1.661l-.625-.214q-.357-.107-.661-.161-.196-.018-.429-.054t-.25-.036q-.536-.036-.661-.036h-.25q-.036.018-.089.027t-.107.009q-.107 0-.179.036h-.125q-.071 0-.089.018v-.268q0-.018-.009-.045t-.018-.071-.009-.08v-.179q-.036-.143-.036-.232.393 0 .5-.018.107-.054.25-.071.196-.036.25-.054l.464-.232q.375-.161.5-.25.357-.232.5-.393.268-.25.446-.5.089-.107.304-.571.214-.393.232-.589.018 0 .018-.071v-.089q-.018-.018-.018-.054t-.036-.071q0-.018-.036-.054t-.054-.036q-.036-.036-.071-.036h-.054q-.393-.054-.625-.054-.071 0-.277.036t-.348.054q-.429.143-.625.214-.464.232-.607.339l-.375.286-.089.089-.089.125q-.125.107-.089.107-.089.036-.286.339l-.25.375-.214-.321q0-.018-.045-.063t-.063-.08-.054-.089-.036-.071l-.25-.25q-.071-.071-.286-.214-.143-.143-.304-.161-.196-.036-.357 0-.214.036-.339.125l-.25.25q-.107.143-.125.304-.036.196 0 .357.036.214.125.339.125.143.25.25.25.196.339.304.089.161.232.5.161.321.161.607.036.268 0 .625v.054q-.982.375-1.786 1.036-.821.625-1.464 1.536-.625.929-.946 1.875-.304.911-.304 2.143 0 .929.107 1.446.143.625.446 1.339.196.518.661 1.196.411.625.839 1.054.446.446 1.054.839.607.464 1.232.696.75.286 1.339.411.661.143 1.411.143.393 0 .661-.018.393-.036.679-.125.161-.036.384-.089t.277-.071q.589-.196.625-.214v.5h15.089V13.092z" fill="#000000"/></svg>